<svg width="89" height="28" viewBox="0 0 89 28" fill="none" xmlns="http://www.w3.org/2000/svg">
<g clip-path="url(#clip0_732_1348)">
<path d="M17.6049 10.0541C15.2376 11.6873 13.184 13.7409 11.5508 16.1081C9.9209 13.7409 7.8673 11.684 5.5 10.0541C7.8673 8.4209 9.9209 6.3673 11.5541 4C13.1873 6.3673 15.2409 8.4209 17.6081 10.0541H17.6049Z" fill="white" fill-opacity="0.96"/>
</g>
<g clip-path="url(#clip1_732_1348)">
<path d="M24.5952 16.1057C23.4615 16.8878 22.4781 17.8712 21.696 19.0048C20.9155 17.8712 19.9321 16.8862 18.7985 16.1057C19.9321 15.3236 20.9155 14.3402 21.6976 13.2065C22.4797 14.3402 23.4631 15.3236 24.5967 16.1057H24.5952Z" fill="white" fill-opacity="0.96"/>
</g>
<g clip-path="url(#clip2_732_1348)">
<path d="M17.4343 21.9021C16.3007 22.6841 15.3172 23.6676 14.5352 24.8012C13.7546 23.6676 12.7712 22.6826 11.6376 21.9021C12.7712 21.12 13.7546 20.1366 14.5367 19.0029C15.3188 20.1366 16.3022 21.12 17.4358 21.9021H17.4343Z" fill="white" fill-opacity="0.96"/>
</g>
<path d="M34.9144 6.82269C34.0801 7.39983 33.3544 8.12269 32.7773 8.95983C32.2001 8.12555 31.4773 7.39983 30.6401 6.82269C31.4773 6.24555 32.203 5.51983 32.7801 4.68555C33.3573 5.51983 34.0801 6.24555 34.9173 6.82269H34.9144Z" fill="white" fill-opacity="0.96"/>
<path d="M31.6285 10.0195H33.9171V21.6824H31.6285V10.0195Z" fill="white" fill-opacity="0.96"/>
<path d="M36.4941 10.0194H38.7827V12.2966H38.8284C39.2741 11.5166 39.9341 10.8966 40.8027 10.4451C41.6741 9.99085 42.6913 9.76514 43.8599 9.76514C45.5799 9.76514 46.917 10.2451 47.8713 11.2051C48.8284 12.1651 49.3056 13.4994 49.3056 15.2109V21.6851H47.017V15.5794C47.017 14.308 46.697 13.3394 46.057 12.6766C45.417 12.0137 44.4684 11.6823 43.2113 11.6823C42.3256 11.6823 41.5513 11.8566 40.8856 12.2023C40.2199 12.548 39.7027 13.0366 39.3341 13.6651C38.9656 14.2937 38.7827 15.0337 38.7827 15.8794V21.6823H36.4941V10.0194Z" fill="white" fill-opacity="0.96"/>
<path d="M49.777 10.0195H52.2313L56.8513 19.5738H56.897L61.4627 10.0195H63.8855L58.0941 21.6824H55.6398L49.7798 10.0195H49.777Z" fill="white" fill-opacity="0.96"/>
<path d="M65.4458 10.0196H67.7344V21.6825H65.4458V10.0196ZM65.4515 5.67676H67.7401V7.96533H65.4515V5.67676Z" fill="white" fill-opacity="0.96"/>
<path d="M70.4258 10.0196H72.7144V21.6825H70.4258V10.0196ZM70.4258 5.67676H72.7144V7.96533H70.4258V5.67676Z" fill="white" fill-opacity="0.96"/>
<path d="M77.8743 20.9679C77.1572 20.3508 76.7972 19.3822 76.7972 18.0651V11.8051H74.2314V10.0194H76.7972V6.9165H79.0972V10.0194H83.0029V11.8051H79.0972V17.8765C79.0972 18.7022 79.2972 19.2822 79.6943 19.6108C80.0914 19.9422 80.7372 20.1079 81.6314 20.1079C81.8629 20.1079 82.1057 20.0965 82.3629 20.0679C82.62 20.0422 82.8343 20.0136 83.0057 19.9851V21.7365C82.76 21.7822 82.4772 21.8194 82.1572 21.8479C81.8372 21.8765 81.5029 21.8936 81.1514 21.8936C79.6857 21.8936 78.5943 21.5851 77.8772 20.9679H77.8743Z" fill="white" fill-opacity="0.96"/>
<defs>
<clipPath id="clip0_732_1348">
<rect width="12.1049" height="12.1049" fill="white" transform="translate(5.5 4)"/>
</clipPath>
<clipPath id="clip1_732_1348">
<rect width="5.79672" height="5.79672" fill="white" transform="translate(18.7983 13.2065)"/>
</clipPath>
<clipPath id="clip2_732_1348">
<rect width="5.79672" height="5.79672" fill="white" transform="translate(11.6377 19.0029)"/>
</clipPath>
</defs>
</svg>
