<svg width="20" height="21" viewBox="0 0 20 21" fill="none" xmlns="http://www.w3.org/2000/svg">
<g clip-path="url(#clip0_732_1310)">
<path d="M12.6049 6.15417C10.2376 7.78735 8.18402 9.84095 6.55084 12.2082C4.9209 9.84095 2.8673 7.78412 0.5 6.15417C2.8673 4.521 4.9209 2.4674 6.55407 0.100098C8.18725 2.4674 10.2409 4.521 12.6081 6.15417H12.6049Z" fill="white" fill-opacity="0.96"/>
</g>
<g clip-path="url(#clip1_732_1310)">
<path d="M19.5952 12.2058C18.4615 12.9879 17.4781 13.9713 16.696 15.1049C15.9155 13.9713 14.9321 12.9863 13.7985 12.2058C14.9321 11.4237 15.9155 10.4403 16.6976 9.30664C17.4797 10.4403 18.4631 11.4237 19.5967 12.2058H19.5952Z" fill="white" fill-opacity="0.96"/>
</g>
<g clip-path="url(#clip2_732_1310)">
<path d="M12.4343 18.0022C11.3007 18.7842 10.3172 19.7677 9.53516 20.9013C8.75462 19.7677 7.77121 18.7827 6.63757 18.0022C7.77121 17.2201 8.75462 16.2367 9.53671 15.103C10.3188 16.2367 11.3022 17.2201 12.4358 18.0022H12.4343Z" fill="white" fill-opacity="0.96"/>
</g>
<defs>
<clipPath id="clip0_732_1310">
<rect width="12.1049" height="12.1049" fill="white" transform="translate(0.5 0.100098)"/>
</clipPath>
<clipPath id="clip1_732_1310">
<rect width="5.79672" height="5.79672" fill="white" transform="translate(13.7983 9.30664)"/>
</clipPath>
<clipPath id="clip2_732_1310">
<rect width="5.79672" height="5.79672" fill="white" transform="translate(6.6377 15.103)"/>
</clipPath>
</defs>
</svg>
